<svg xmlns="http://www.w3.org/2000/svg" width="32" height="32" x="0" y="0" enable-background="new 0 0 32 32" version="1.1" viewBox="0 0 32 32" xml:space="preserve"><g id="_x30_4" transform="matrix(1.875,0,0,1.875,-13.976695,-14.084746)"><g id="g5" fill-rule="evenodd" clip-rule="evenodd"><path id="_x3C_Path_x3E__12_" fill="#e0b91d" d="m21.001,8h-5.999c-1.1,0-2,0.9-2,2v6h1.843c0.084,0,0.156,0.072,0.156,0.156l-0.001,5.844h6.001c1.1,0,2-0.899,2-2v-10c0-1.1-0.901-2-2-2zm-5.999,3v-1h5.999v1h-5.999zm5.999,1v6h-5.999v-6h5.999zm0,7v1h-5.999v-1h5.999z"/><path id="_x3C_Path_x3E__11_" fill="#3193d4" d="M15,23.844c0,0.084-0.072,0.156-0.156,0.156h-5.689c-0.083,0-0.155-0.07-0.155-0.156v-7.688c0-0.086,0.072-0.156,0.156-0.156h5.688c0.084,0,0.156,0.072,0.156,0.156,0.001,2.231,0,5.458,0,7.688zm-1.5-3.594h-3c-0.136,0-0.249,0.113-0.249,0.249v0.501c0,0.137,0.111,0.25,0.249,0.25h3c0.138,0,0.25-0.112,0.25-0.25v-0.501c0-0.138-0.115-0.249-0.25-0.249zm0-1.5h-3c-0.136,0-0.249,0.113-0.249,0.249v0.501c0,0.136,0.111,0.25,0.249,0.25h3c0.138,0,0.25-0.112,0.25-0.25v-0.501c0-0.138-0.115-0.249-0.25-0.249zm-3.5,4.25h4c0-1.667,0.001-4.332,0.001-6h-4.001v6z"/></g></g></svg>