<svg xmlns="http://www.w3.org/2000/svg" width="32" height="32" x="0" y="0" enable-background="new 0 0 32 32" version="1.1" viewBox="0 0 32 32" xml:space="preserve"><g id="_x31_4_1_" transform="matrix(1.875,0,0,1.875,-13.373756,-13.949153)"><g id="g5" fill-rule="evenodd" clip-rule="evenodd"><path id="_x3C_Path_x3E__27_" fill="#e0b91d" d="m18,8h-8c-1.099,0-1.999,0.9-1.999,2v12c0,1.101,0.899,2,1.999,2h6.429c-0.687-0.516-1.235-1.204-1.583-2h-4.846v-1h4.529c-0.066-0.323-0.101-0.657-0.101-1h-4.428v-8h8v3.208c0.452-0.135,0.932-0.208,1.429-0.208,0.193,0,0.384,0.011,0.57,0.033v-5.033c0-1.1-0.901-2-1.999-2zm0,2v1h-8v-1h8z"/><path id="_x3C_Path_x3E__26_" fill="gray" d="m19.429,16c2.209,0,4,1.791,4,4s-1.791,4-4,4-4-1.791-4-4,1.791-4,4-4zm0.5,4.095v-1.75c0-0.138-0.112-0.25-0.25-0.25h-0.5c-0.138,0-0.25,0.112-0.25,0.25v1.75l-0.384-0.384c-0.098-0.097-0.256-0.097-0.354,0l-0.354,0.354c-0.098,0.097-0.098,0.255,0,0.353l1.414,1.414v0.001l0.005,0.004,0.005,0.004v0.001l0.005,0.004,0.005,0.004,0.005,0.004,0.005,0.004,0.005,0.003v0.001l0.005,0.003v0.001l0.006,0.002v0.001l0.005,0.003,0.005,0.003,0.006,0.003,0.006,0.003,0.005,0.002v0.001l0.006,0.002,0.006,0.002v0.001l0.005,0.002,0.006,0.002,0.006,0.002,0.006,0.002,0.006,0.001v0.001l0.006,0.001,0.006,0.001,0.006,0.001v0.001l0.006,0.001,0.006,0.001h0.006v0.001h0.013v0.001h0.036v-0.001h0.013v-0.001h0.006l0.006-0.001,0.006-0.001v-0.003l0.006-0.001,0.006-0.001,0.006-0.001v-0.001l0.006-0.001,0.006-0.002,0.006-0.002,0.006-0.002,0.005-0.002v-0.001l0.006-0.002,0.006-0.002v-0.001l0.005-0.002,0.006-0.003,0.006-0.003,0.005-0.003,0.006-0.003v-0.001l0.005-0.002v-0.001l0.005-0.003,0.005-0.003,0.006-0.004,0.004-0.004,0.005-0.004,0.005-0.004v-0.001l0.005-0.004,0.005-0.004v-0.001l1.414-1.414c0.098-0.098,0.098-0.256,0-0.353l-0.354-0.354c-0.098-0.097-0.256-0.097-0.354,0l-0.39,0.385z"/></g></g></svg>