<svg xmlns="http://www.w3.org/2000/svg" xmlns:xlink="http://www.w3.org/1999/xlink" width="12" height="12" x="0" y="0" enable-background="new 8 8 16 16" version="1.1" viewBox="8 8 16 16" xml:space="preserve"><g id="_x32_2_1_"><g><path fill="gray" fill-rule="evenodd" d="M8,23.318h6.034C14.106,23.133,14.288,23,14.5,23h1v-1 c0-0.275,0.225-0.5,0.499-0.5H16c0.274,0,0.5,0.225,0.5,0.5v1h1c0.211,0,0.393,0.133,0.466,0.318H24v0.363h-6.034 C17.893,23.868,17.711,24,17.5,24h-3c-0.212,0-0.394-0.132-0.466-0.318H8V23.318z" clip-rule="evenodd"/><path id="_x3C_Path_x3E__36_" fill="gray" fill-rule="evenodd" d="M9,17h14c0.55,0,1,0.45,1,1v2 c0,0.551-0.45,1-1,1H9c-0.55,0-1-0.449-1-1v-2C8,17.45,8.45,17,9,17L9,17z M9,8h14c0.55,0,1,0.45,1,1v2c0,0.55-0.45,1-1,1H9 c-0.55,0-1-0.45-1-1V9C8,8.45,8.45,8,9,8L9,8z M9,9v2h6V9H9L9,9z M9,12.5h14c0.55,0,1,0.45,1,1v2c0,0.55-0.45,1-1,1H9 c-0.55,0-1-0.45-1-1v-2C8,12.95,8.45,12.5,9,12.5L9,12.5z M9,13.5v2h6v-2H9L9,13.5z M9,18v2h6v-2H9z" clip-rule="evenodd"/></g></g></svg>