<svg xmlns="http://www.w3.org/2000/svg" xmlns:xlink="http://www.w3.org/1999/xlink" id="interface" width="32" height="32" x="0" y="0" enable-background="new 0 0 32 32" version="1.1" viewBox="0 0 32 32" xml:space="preserve"><g><path fill="#9A5CFF" fill-rule="evenodd" d="M16,24c4.406,0,8-3.594,8-8c0-4.406-3.594-8-8-8 c-4.406,0-8,3.594-8,8C8,20.406,11.594,24,16,24z" clip-rule="evenodd"/><path fill="#FFF" fill-rule="evenodd" d="M15.25,12h1.501C16.888,12,17,12.112,17,12.25v7.5 c0,0.138-0.112,0.25-0.249,0.25H15.25C15.112,20,15,19.888,15,19.75v-7.5C15,12.112,15.112,12,15.25,12z" clip-rule="evenodd"/></g></svg>