<svg xmlns="http://www.w3.org/2000/svg" xmlns:xlink="http://www.w3.org/1999/xlink" width="12" height="10" version="1.1" viewBox="0 0 12 10"><g fill="none" fill-rule="evenodd" stroke="none" stroke-width="1"><g><g transform="translate(-8.000000, -6.000000) translate(8.000000, 6.000000)"><path fill="#AAA" d="M5.3204844,8.57142833 L0.714285714,8.57142857 C0.319754464,8.57142857 0,8.25167411 0,7.85714286 L0,0.714285714 C0,0.319754464 0.319754464,0 0.714285714,0 L9.28571429,0 C9.68024554,0 10,0.319754464 10,0.714285714 L10,3.12601749 C9.68038008,3.043753 9.34529957,3 9,3 C6.790861,3 5,4.790861 5,7 C5,7.55784827 5.11419523,8.08902481 5.3204844,8.57142833 Z M1.42857143,5 L2.85714286,3.57142857 L1.42857143,2.14285714 L2.14285714,1.42857143 L4.28571429,3.57142857 L2.14285714,5.71428571 L1.42857143,5 L1.42857143,5 Z"/><circle cx="9" cy="7" r="3" fill="#4EABFF"/><path id="Line1" stroke="#FFF" stroke-linecap="square" d="M9,6 L9,8"/><path id="Line2" stroke="#FFF" stroke-linecap="square" d="M8,7 L10,7"/></g></g></g></svg>