<svg xmlns="http://www.w3.org/2000/svg" xmlns:xlink="http://www.w3.org/1999/xlink" width="32" height="32" x="0" y="0" enable-background="new 0 0 32 32" version="1.1" viewBox="0 0 32 32" xml:space="preserve"><g id="Layer_1_32_"><path fill="#72AD42" fill-rule="evenodd" d="M8.001,17.001v-2.002c0-0.551,0.449-0.999,0.999-1h5.001V9 c0-0.55,0.448-0.999,0.998-0.999l2.002,0c0.551,0,0.999,0.449,1,0.998v5h5c0.55,0,0.998,0.449,0.998,0.999v2.003 c0,0.55-0.448,0.999-0.998,0.999h-5L18,23.001c0,0.549-0.448,0.998-0.999,0.999l-2.002-0.001c-0.55,0-0.998-0.448-0.998-0.998V18H9 C8.45,17.999,8.001,17.551,8.001,17.001z" clip-rule="evenodd"/></g></svg>