<svg xmlns="http://www.w3.org/2000/svg" xmlns:xlink="http://www.w3.org/1999/xlink" width="32" height="32" x="0" y="0" enable-background="new 0 0 32 32" version="1.1" viewBox="0 0 32 32" xml:space="preserve"><g id="Layer_1_34_"><g><path fill="#3193D4" fill-rule="evenodd" d="M8,15.916c0-2.028,0.396-3.75,1.182-5.164 C9.966,9.335,10.854,8.419,11.848,8h0.048l0.41,1.133c-0.678,0.506-1.244,1.324-1.705,2.452S9.909,14.152,9.909,15.9v0.201 c0,1.752,0.23,3.194,0.691,4.319s1.027,1.949,1.705,2.471L11.896,24h-0.048c-0.993-0.418-1.882-1.335-2.666-2.746 C8.396,19.84,8,18.119,8,16.085V15.916L8,15.916z M21.183,16.085c0,0.312-0.01,0.617-0.03,0.916L20.625,17 c-0.758,0-1.375,0.616-1.375,1.375v0.875h-0.425c0.216-0.906,0.324-1.956,0.324-3.149V15.9c0-1.737-0.236-3.178-0.705-4.319 c-0.472-1.141-1.035-1.967-1.692-2.479L17.171,8h0.047c1.004,0.413,1.915,1.342,2.733,2.786c0.821,1.443,1.231,3.154,1.231,5.129 V16.085L21.183,16.085z M18.883,22.749c-0.523,0.593-1.078,1.01-1.665,1.251h-0.047l-0.419-1.109 c0.215-0.162,0.419-0.357,0.612-0.585c0.252,0.272,0.611,0.443,1.011,0.443H18.883z" clip-rule="evenodd"/><path fill="#72AD42" fill-rule="evenodd" d="M18,21.375l0.001-0.751C18,20.418,18.169,20.25,18.375,20.25 h1.875v-1.875c0-0.207,0.169-0.375,0.374-0.375h0.752c0.206,0,0.374,0.169,0.374,0.375v1.875h1.875 c0.206,0,0.375,0.168,0.375,0.374v0.751c0,0.206-0.169,0.375-0.375,0.375H21.75v1.875c0,0.206-0.168,0.375-0.374,0.375h-0.752 c-0.205,0-0.374-0.169-0.374-0.375V21.75h-1.875C18.169,21.749,18,21.581,18,21.375z" clip-rule="evenodd"/></g></g></svg>