<svg xmlns="http://www.w3.org/2000/svg" xmlns:xlink="http://www.w3.org/1999/xlink" width="32" height="32" x="0" y="0" enable-background="new 0 0 32 32" version="1.1" viewBox="0 0 32 32" xml:space="preserve"><g id="Layer_1_22_"><g><path fill="gray" fill-rule="evenodd" d="M13,18.75v-0.501C13,18.112,13.112,18,13.249,18H23.75 c0.138,0,0.25,0.112,0.25,0.249v0.501c0,0.137-0.112,0.25-0.25,0.25H13.249C13.112,19,13,18.888,13,18.75z" clip-rule="evenodd"/><path fill="#3193D4" fill-rule="evenodd" d="M11.618,13.066l-3.553,3.553 c-0.064,0.065-0.083,0.158-0.048,0.243S8.132,17,8.224,17h3.553c0.123,0,0.223-0.101,0.223-0.223v-3.553 c0-0.092-0.052-0.171-0.137-0.207C11.776,12.983,11.684,13.001,11.618,13.066z" clip-rule="evenodd"/></g></g></svg>