<svg xmlns="http://www.w3.org/2000/svg" xmlns:xlink="http://www.w3.org/1999/xlink" width="16" height="16" x="0" y="0" enable-background="new 0 0 32 32" version="1.1" viewBox="7 7 18 18" xml:space="preserve"><g id="Text_file"><path fill="#4D4D4D" fill-rule="evenodd" d="M8.25,8h13.5C21.888,8,22,8.112,22,8.25v1.5 C22,9.888,21.888,10,21.75,10H8.25C8.112,10,8,9.888,8,9.75v-1.5C8,8.112,8.112,8,8.25,8L8.25,8z M8.25,22h13.5 c0.138,0,0.25,0.112,0.25,0.25v1.5c0,0.138-0.112,0.25-0.25,0.25H8.25C8.112,24,8,23.888,8,23.75v-1.5C8,22.112,8.112,22,8.25,22 L8.25,22z M8.249,18.5H23.75c0.138,0,0.25,0.112,0.25,0.25v1.5c0,0.138-0.112,0.25-0.25,0.25H8.249C8.112,20.5,8,20.388,8,20.25 v-1.5C8,18.612,8.112,18.5,8.249,18.5L8.249,18.5z M8.25,15h13.5c0.138,0,0.25,0.112,0.25,0.25v1.501C22,16.888,21.888,17,21.75,17 H8.25C8.112,17,8,16.888,8,16.751V15.25C8,15.112,8.112,15,8.25,15L8.25,15z M8.25,11.5h11.5c0.138,0,0.25,0.112,0.25,0.25v1.5 c0,0.138-0.112,0.25-0.25,0.25H8.25C8.112,13.5,8,13.388,8,13.25v-1.5C8,11.612,8.112,11.5,8.25,11.5z" clip-rule="evenodd"/></g></svg>