<svg xmlns="http://www.w3.org/2000/svg" xmlns:xlink="http://www.w3.org/1999/xlink" id="genericFile" width="16" height="16" x="0" y="0" enable-background="new 0 0 32 32" version="1.1" viewBox="7 7 18 18" xml:space="preserve"><g><path fill="#3193D4" fill-rule="evenodd" d="M12,20.579v-0.501c0-0.138,0.112-0.25,0.25-0.25h4.673 c0.138,0,0.25,0.112,0.25,0.25v0.501c0,0.137-0.112,0.249-0.25,0.249H12.25C12.112,20.828,12,20.716,12,20.579L12,20.579z M12,12.578v-0.5c0-0.138,0.112-0.25,0.25-0.25h4.673c0.138,0,0.25,0.112,0.25,0.25v0.5c0,0.138-0.112,0.25-0.25,0.25H12.25 C12.112,12.828,12,12.716,12,12.578L12,12.578z M12,14.578v-0.5c0-0.137,0.112-0.25,0.25-0.25h7.5c0.138,0,0.25,0.112,0.25,0.25 v0.5c0,0.138-0.112,0.25-0.25,0.25h-7.5C12.112,14.828,12,14.716,12,14.578L12,14.578z M12,16.578v-0.5 c0-0.137,0.112-0.25,0.25-0.25h7.5c0.138,0,0.25,0.112,0.25,0.25v0.5c0,0.138-0.112,0.25-0.25,0.25h-7.5 C12.112,16.828,12,16.716,12,16.578L12,16.578z M12,18.578v-0.5c0-0.138,0.112-0.25,0.25-0.25h7.5c0.138,0,0.25,0.112,0.25,0.25 v0.5c0,0.138-0.112,0.25-0.25,0.25h-7.5C12.112,18.828,12,18.716,12,18.578z" clip-rule="evenodd"/><path fill="gray" fill-rule="evenodd" d="M9.25,8h9.667c0.069,0,0.129,0.025,0.178,0.074l3.833,3.853 C22.976,11.975,23,12.035,23,12.103V23.75c0,0.138-0.112,0.25-0.25,0.25H9.25C9.112,24,9,23.888,9,23.75V8.25 C9,8.112,9.112,8,9.25,8L9.25,8z M18.173,10L11,10v12h10v-9.172h-2.578c-0.137,0-0.249-0.112-0.249-0.25V10z" clip-rule="evenodd"/></g></svg>