<svg xmlns="http://www.w3.org/2000/svg" xmlns:xlink="http://www.w3.org/1999/xlink" id="defaultImage" width="16" height="16" x="0" y="0" enable-background="new 0 0 32 32" version="1.1" viewBox="7 7 18 18" xml:space="preserve"><g><path fill="#72AD42" fill-rule="evenodd" d="M24,9.25v13.5c0,0.138-0.112,0.25-0.25,0.25H8.25 C8.112,23,8,22.888,8,22.75V9.25C8,9.113,8.112,9,8.25,9h15.5C23.888,9,24,9.112,24,9.25L24,9.25z M14,13l-2.801,6H20.8l-2.4-3.2 L16.934,17L14,13L14,13z M20.533,14.066c0-0.515-0.418-0.933-0.934-0.933s-0.933,0.418-0.933,0.933 c0,0.516,0.417,0.934,0.933,0.934S20.533,14.583,20.533,14.066L20.533,14.066z M22,11H10v10h12V11z" clip-rule="evenodd"/></g></svg>