<svg xmlns="http://www.w3.org/2000/svg" xmlns:xlink="http://www.w3.org/1999/xlink" id="mdFile" width="16" height="16" x="0" y="0" enable-background="new 0 0 32 32" version="1.1" viewBox="7 7 18 18" xml:space="preserve"><g><path fill="#9A5CFF" fill-rule="evenodd" d="M22.847,11H9.153C8.518,11,8,11.518,8,12.154v7.692 C8,20.482,8.518,21,9.153,21h13.693C23.482,21,24,20.482,24,19.847v-7.693C24,11.518,23.482,11,22.847,11L22.847,11L22.847,11z M17,18.998L15,19v-3l-1.5,1.923L12,16v3H9.999v-6h2l1.5,2L15,13l2-0.002V18.998L17,18.998L17,18.998z M19.985,19.499L17.5,16H19 v-3h2v3h1.499L19.985,19.499L19.985,19.499z" clip-rule="evenodd"/></g></svg>