<svg xmlns="http://www.w3.org/2000/svg" xmlns:xlink="http://www.w3.org/1999/xlink" id="projectFolder" width="16" height="16" x="0" y="0" enable-background="new 0 0 32 32" version="1.1" viewBox="7 7 18 18" xml:space="preserve"><g><path fill="#E0B91D" fill-rule="evenodd" d="M9,8c1.795,0,2.976,0,4.771,0c0.55,0,0.787,0.493,1,1 l0.615,1.461H23c0.55,0,1,0.451,1,1v5.364l-4-2.31l-5,2.887v4.134H9c-0.55,0-1-0.45-1-1V9C8,8.45,8.45,8,9,8z" clip-rule="evenodd"/><path fill="#3193D4" fill-rule="evenodd" d="M23.502,17.692L20,15.67l-3.501,2.021l3.502,2.021L23.502,17.692 L23.502,17.692z M16,18.556l3.5,2.021V24L16,21.979V18.556L16,18.556z M20.5,24v-3.425l3.5-2.021v3.425L20.5,24z" clip-rule="evenodd"/></g></svg>