<svg xmlns="http://www.w3.org/2000/svg" xmlns:xlink="http://www.w3.org/1999/xlink" id="updateDependencies" width="16" height="16" x="0" y="0" enable-background="new 0 0 32 32" version="1.1" viewBox="7 7 18 18" xml:space="preserve"><g><path fill="#4D4D4D" fill-rule="evenodd" d="M11,16c0,2.762,2.238,5.001,5,5c1.986,0,3.701-1.157,4.509-2.835 l1.473,1.473C20.753,21.654,18.534,23,16,23c-3.866,0-7-3.134-7-7H8l2.122-2.121L12.243,16H11L11,16z M21,16h-1.243l2.122,2.122 L24,16h-1c0-3.866-3.134-7-7-7c-2.533,0-4.752,1.346-5.98,3.362l1.473,1.473C12.299,12.158,14.015,11,16,11 C18.762,11,21.001,13.239,21,16z" clip-rule="evenodd"/></g></svg>