<svg xmlns="http://www.w3.org/2000/svg" xmlns:xlink="http://www.w3.org/1999/xlink" width="256" height="380" version="1.1" viewBox="0 0 256 380"><g fill="none" fill-rule="evenodd" stroke="none" stroke-width="1"><g id="Group"><g><path fill="#3193D4" d="M372.007595,257 C376.421678,257 380,253.417785 380,249.004558 L380,8.99544162 C380,4.57968115 376.422339,1 372.007595,1 L355.992405,1 C351.578322,1 348,4.58221516 348,8.99544162 L348,249.004558 C348,253.420319 351.577661,257 355.992405,257 L372.007595,257 Z" transform="translate(-1.000000, -1.000000) translate(129.500000, 191.500000) rotate(90.000000) translate(-129.500000, -191.500000) translate(-61.000000, 63.000000)"/><path fill="gray" d="M43,193 L75,193 L75,65 L43,65 L43,193 L43,193 Z" transform="translate(-1.000000, -1.000000) translate(129.500000, 191.500000) rotate(90.000000) translate(-129.500000, -191.500000) translate(-61.000000, 63.000000)"/><path fill="gray" d="M2.8315128e-12,193 L32,193 L32,65 L2.8315128e-12,65 L2.8315128e-12,193 L2.8315128e-12,193 Z" transform="translate(-1.000000, -1.000000) translate(129.500000, 191.500000) rotate(90.000000) translate(-129.500000, -191.500000) translate(-61.000000, 63.000000)"/><path fill="#CF405F" d="M217.540249,4.54024884 C215.585023,2.5850234 214,3.2402674 214,5.99531509 L214,65 L86,65 L86,193 L214,193 L214,252.004685 C214,254.763521 215.583699,255.416301 217.540249,253.459751 L338.459751,132.540249 C340.414977,130.585023 340.416301,127.416301 338.459751,125.459751 L217.540249,4.54024884 Z" transform="translate(-1.000000, -1.000000) translate(129.500000, 191.500000) rotate(90.000000) translate(-129.500000, -191.500000) translate(-61.000000, 63.000000)"/></g></g></g></svg>