<svg xmlns="http://www.w3.org/2000/svg" xmlns:xlink="http://www.w3.org/1999/xlink" width="32" height="32" x="0" y="0" enable-background="new 0 0 32 32" version="1.1" viewBox="0 0 32 32" xml:space="preserve"><g id="_x30_7"><path fill="gray" fill-rule="evenodd" d="M18.538,14.845l5.106-5.202c0.098-0.099,0.146-0.22,0.144-0.359 c-0.003-0.139-0.055-0.258-0.156-0.354l-0.609-0.579c-0.197-0.188-0.51-0.182-0.7,0.012l-5.082,5.177 c-0.023-0.011-0.046-0.025-0.069-0.036c-0.976-0.446-2.073-0.291-2.874,0.312l3.974,3.929c0.112-0.153,0.211-0.319,0.293-0.499 C18.928,16.453,18.891,15.576,18.538,14.845z" clip-rule="evenodd"/><path fill="#3193D4" fill-rule="evenodd" d="M13.394,14.563c-1.709,1.062-3.488,1.93-5.394,2.461 c0.236,0.457,0.492,0.896,0.766,1.316l1.939-0.689l-1.53,1.291c1.493,2.085,3.554,3.797,5.788,5.045 c0.477-1.899,1.387-3.667,2.47-5.383L13.394,14.563z" clip-rule="evenodd"/></g></svg>