<svg xmlns="http://www.w3.org/2000/svg" xmlns:xlink="http://www.w3.org/1999/xlink" width="512" height="512" x="0" y="0" enable-background="new 0 0 512 512" version="1.1" viewBox="0 0 512 512" xml:space="preserve"><path id="remove-file-icon" d="M364.391,292.705c-46.756,0-84.66,37.902-84.66,84.658c0,46.757,37.904,84.659,84.66,84.659	s84.658-37.902,84.658-84.659C449.049,330.607,411.146,292.705,364.391,292.705z M416.42,392.747H314.828v-28.301H416.42V392.747z M397.932,151.267H297.438V50.773L397.932,151.267z M280.249,462.472H62.951v-412h199.501v135.781h135.864v76.329	c-10.755-3.169-22.138-4.877-33.926-4.877c-66.132,0-119.66,53.518-119.66,119.658C244.73,410.676,258.315,440.786,280.249,462.472z"/></svg>