<svg xmlns="http://www.w3.org/2000/svg" xmlns:xlink="http://www.w3.org/1999/xlink" id="delete" width="16" height="16" x="0" y="0" enable-background="new 0 0 32 32" version="1.1" viewBox="7 7 18 18" xml:space="preserve"><g><path fill="#4D4D4D" fill-rule="evenodd" d="M11,9h3c0-0.55,0.45-1,1-1h2.001C17.55,8,18,8.45,18,9h3 c0.55,0,1,0.45,1,1v0c0,0.549-0.45,1-1,1H11c-0.55,0-1-0.45-1-1v0C10,9.45,10.45,9,11,9L11,9z M12,12h8c0.55,0,1.055,0.453,1,1 l-1,10c-0.054,0.548-0.45,1-1,1h-6c-0.55,0-0.945-0.452-1-1l-1-10C10.946,12.453,11.45,12,12,12z" clip-rule="evenodd"/></g></svg>