<svg xmlns="http://www.w3.org/2000/svg" xmlns:xlink="http://www.w3.org/1999/xlink" id="paste" width="16" height="16" x="0" y="0" enable-background="new 0 0 32 32" version="1.1" viewBox="7 7 18 18" xml:space="preserve"><g><path fill="#4D4D4D" fill-rule="evenodd" d="M22.751,24H9.249C9.112,24,9,23.888,9,23.75V9.25 C9,9.112,9.112,9,9.249,9h4.516C14.313,8.387,15.112,8,16,8c0.889,0,1.687,0.387,2.235,1h4.516C22.888,9,23,9.113,23,9.25v14.5 C23,23.888,22.888,24,22.751,24L22.751,24z M15,11c0,0.552,0.448,1,1,1s1-0.448,1-1c0-0.553-0.448-1-1-1S15,10.447,15,11L15,11z M19,11v1.75c0,0.138-0.112,0.25-0.249,0.25h-5.502C13.112,13,13,12.888,13,12.75V11h-2v11h10V11H19z" clip-rule="evenodd"/></g></svg>