<svg xmlns="http://www.w3.org/2000/svg" xmlns:xlink="http://www.w3.org/1999/xlink" id="uploadFile" width="16" height="16" x="0" y="0" enable-background="new 0 0 32 32" version="1.1" viewBox="7 7 18 18" xml:space="preserve"><g><path fill="#4D4D4D" fill-rule="evenodd" d="M22.75,8h-9.667c-0.069,0-0.129,0.025-0.178,0.074l-3.833,3.853 C9.024,11.975,9,12.035,9,12.103V23.75C9,23.887,9.112,24,9.249,24c4.501,0,9.001,0,13.501,0c0.138,0,0.25-0.112,0.25-0.25V8.25 C23,8.112,22.888,8,22.75,8L22.75,8z M15,22h-4.001v-9.172h2.578c0.138,0,0.25-0.112,0.25-0.25V10L21,10v12h-4v-3.879h1.121 L15.999,16l-2.121,2.121H15V22z" clip-rule="evenodd"/></g></svg>