<svg xmlns="http://www.w3.org/2000/svg" xmlns:xlink="http://www.w3.org/1999/xlink" width="32" height="32" x="0" y="0" version="1.1" viewBox="6 6 20 20"><g><polygon fill="#CF405F" fill-rule="evenodd" points="8.001 13.657 8.001 8 10.829 10.828" clip-rule="evenodd"/><path fill="gray" fill-rule="evenodd" d="M10.985,13.5h12.016c0.55,0,1-0.45,1-1v0c0-0.55-0.45-1-1-1 H12.985L10.985,13.5L10.985,13.5z M12.829,10h10.172c0.55,0,1-0.45,1-1v0c0-0.55-0.45-1-1-1H10.829L12.829,10z" clip-rule="evenodd"/><path fill="#3193D4" fill-rule="evenodd" d="M9,17h14.001c0.55,0,1-0.449,1-1v0c0-0.55-0.45-1-1-1H9 c-0.55,0-0.999,0.45-0.999,1v0C8.001,16.551,8.45,17,9,17L9,17z M9,24h14.001c0.55,0,1-0.45,1-1l0,0c0-0.55-0.45-1-1-1H9 c-0.55,0-0.999,0.45-0.999,1l0,0C8.001,23.55,8.45,24,9,24L9,24z M9,20.5h14.001c0.55,0,1-0.449,1-1l0,0c0-0.55-0.45-1-1-1H9 c-0.55,0-0.999,0.45-0.999,1l0,0C8.001,20.051,8.45,20.5,9,20.5z" class="blueColored" clip-rule="evenodd"/></g></svg>